<svg id="visual" viewBox="0 0 960 540" width="960" height="540" xmlns="http://www.w3.org/2000/svg" xmlns:xlink="http://www.w3.org/1999/xlink" version="1.1"><rect x="0" y="0" width="960" height="540" fill="#001220"></rect><path d="M0 130L22.8 124.5C45.7 119 91.3 108 137 109.2C182.7 110.3 228.3 123.7 274 133C319.7 142.3 365.3 147.7 411.2 138.5C457 129.3 503 105.7 548.8 92C594.7 78.3 640.3 74.7 686 80.7C731.7 86.7 777.3 102.3 823 103.2C868.7 104 914.3 90 937.2 83L960 76L960 0L937.2 0C914.3 0 868.7 0 823 0C777.3 0 731.7 0 686 0C640.3 0 594.7 0 548.8 0C503 0 457 0 411.2 0C365.3 0 319.7 0 274 0C228.3 0 182.7 0 137 0C91.3 0 45.7 0 22.8 0L0 0Z" fill="#FBAE3C" stroke-linecap="round" stroke-linejoin="miter"></path></svg>