<svg id="visual" viewBox="0 0 900 600" width="900" height="600" xmlns="http://www.w3.org/2000/svg" xmlns:xlink="http://www.w3.org/1999/xlink" version="1.1"><rect x="0" y="0" width="900" height="600" fill="#001220"></rect><path d="M0 373L21.5 381.5C43 390 86 407 128.8 418C171.7 429 214.3 434 257.2 435C300 436 343 433 385.8 433C428.7 433 471.3 436 514.2 433.2C557 430.3 600 421.7 642.8 417C685.7 412.3 728.3 411.7 771.2 417.3C814 423 857 435 878.5 441L900 447L900 601L878.5 601C857 601 814 601 771.2 601C728.3 601 685.7 601 642.8 601C600 601 557 601 514.2 601C471.3 601 428.7 601 385.8 601C343 601 300 601 257.2 601C214.3 601 171.7 601 128.8 601C86 601 43 601 21.5 601L0 601Z" fill="#fbae3c"></path><path d="M0 450L21.5 446.2C43 442.3 86 434.7 128.8 436.2C171.7 437.7 214.3 448.3 257.2 444.8C300 441.3 343 423.7 385.8 425.3C428.7 427 471.3 448 514.2 456.3C557 464.7 600 460.3 642.8 456C685.7 451.7 728.3 447.3 771.2 437.7C814 428 857 413 878.5 405.5L900 398L900 601L878.5 601C857 601 814 601 771.2 601C728.3 601 685.7 601 642.8 601C600 601 557 601 514.2 601C471.3 601 428.7 601 385.8 601C343 601 300 601 257.2 601C214.3 601 171.7 601 128.8 601C86 601 43 601 21.5 601L0 601Z" fill="#f0a433"></path><path d="M0 449L21.5 453.3C43 457.7 86 466.3 128.8 468C171.7 469.7 214.3 464.3 257.2 470C300 475.7 343 492.3 385.8 493.2C428.7 494 471.3 479 514.2 471C557 463 600 462 642.8 462.2C685.7 462.3 728.3 463.7 771.2 466.5C814 469.3 857 473.7 878.5 475.8L900 478L900 601L878.5 601C857 601 814 601 771.2 601C728.3 601 685.7 601 642.8 601C600 601 557 601 514.2 601C471.3 601 428.7 601 385.8 601C343 601 300 601 257.2 601C214.3 601 171.7 601 128.8 601C86 601 43 601 21.5 601L0 601Z" fill="#e59a2a"></path><path d="M0 540L21.5 535.5C43 531 86 522 128.8 516C171.7 510 214.3 507 257.2 502.7C300 498.3 343 492.7 385.8 489.5C428.7 486.3 471.3 485.7 514.2 487.7C557 489.7 600 494.3 642.8 495.2C685.7 496 728.3 493 771.2 499.7C814 506.3 857 522.7 878.5 530.8L900 539L900 601L878.5 601C857 601 814 601 771.2 601C728.3 601 685.7 601 642.8 601C600 601 557 601 514.2 601C471.3 601 428.7 601 385.8 601C343 601 300 601 257.2 601C214.3 601 171.7 601 128.8 601C86 601 43 601 21.5 601L0 601Z" fill="#da9021"></path><path d="M0 536L21.5 536.8C43 537.7 86 539.3 128.8 543.5C171.7 547.7 214.3 554.3 257.2 554.2C300 554 343 547 385.8 548C428.7 549 471.3 558 514.2 558.3C557 558.7 600 550.3 642.8 544.8C685.7 539.3 728.3 536.7 771.2 540.8C814 545 857 556 878.5 561.5L900 567L900 601L878.5 601C857 601 814 601 771.2 601C728.3 601 685.7 601 642.8 601C600 601 557 601 514.2 601C471.3 601 428.7 601 385.8 601C343 601 300 601 257.2 601C214.3 601 171.7 601 128.8 601C86 601 43 601 21.5 601L0 601Z" fill="#d08617"></path></svg>