<svg id="visual" viewBox="0 0 900 600" width="900" height="600" xmlns="http://www.w3.org/2000/svg" xmlns:xlink="http://www.w3.org/1999/xlink" version="1.1"><rect x="0" y="0" width="900" height="600" fill="#171219"></rect><path d="M0 483L21.5 486.2C43 489.3 86 495.7 128.8 496.7C171.7 497.7 214.3 493.3 257.2 485.8C300 478.3 343 467.7 385.8 463.8C428.7 460 471.3 463 514.2 468.7C557 474.3 600 482.7 642.8 484.3C685.7 486 728.3 481 771.2 477C814 473 857 470 878.5 468.5L900 467L900 601L878.5 601C857 601 814 601 771.2 601C728.3 601 685.7 601 642.8 601C600 601 557 601 514.2 601C471.3 601 428.7 601 385.8 601C343 601 300 601 257.2 601C214.3 601 171.7 601 128.8 601C86 601 43 601 21.5 601L0 601Z" fill="#688b58"></path><path d="M0 506L21.5 509.8C43 513.7 86 521.3 128.8 518C171.7 514.7 214.3 500.3 257.2 498.8C300 497.3 343 508.7 385.8 509.8C428.7 511 471.3 502 514.2 500.8C557 499.7 600 506.3 642.8 510.5C685.7 514.7 728.3 516.3 771.2 517C814 517.7 857 517.3 878.5 517.2L900 517L900 601L878.5 601C857 601 814 601 771.2 601C728.3 601 685.7 601 642.8 601C600 601 557 601 514.2 601C471.3 601 428.7 601 385.8 601C343 601 300 601 257.2 601C214.3 601 171.7 601 128.8 601C86 601 43 601 21.5 601L0 601Z" fill="#59794b"></path><path d="M0 541L21.5 539.3C43 537.7 86 534.3 128.8 531.5C171.7 528.7 214.3 526.3 257.2 523.8C300 521.3 343 518.7 385.8 519C428.7 519.3 471.3 522.7 514.2 529.3C557 536 600 546 642.8 548.8C685.7 551.7 728.3 547.3 771.2 545.7C814 544 857 545 878.5 545.5L900 546L900 601L878.5 601C857 601 814 601 771.2 601C728.3 601 685.7 601 642.8 601C600 601 557 601 514.2 601C471.3 601 428.7 601 385.8 601C343 601 300 601 257.2 601C214.3 601 171.7 601 128.8 601C86 601 43 601 21.5 601L0 601Z" fill="#4b683e"></path><path d="M0 564L21.5 564.2C43 564.3 86 564.7 128.8 564.5C171.7 564.3 214.3 563.7 257.2 565.2C300 566.7 343 570.3 385.8 568.8C428.7 567.3 471.3 560.7 514.2 561.3C557 562 600 570 642.8 571C685.7 572 728.3 566 771.2 566.2C814 566.3 857 572.7 878.5 575.8L900 579L900 601L878.5 601C857 601 814 601 771.2 601C728.3 601 685.7 601 642.8 601C600 601 557 601 514.2 601C471.3 601 428.7 601 385.8 601C343 601 300 601 257.2 601C214.3 601 171.7 601 128.8 601C86 601 43 601 21.5 601L0 601Z" fill="#3d5731"></path></svg>