<svg id="visual" viewBox="0 0 900 600" width="900" height="600" xmlns="http://www.w3.org/2000/svg" xmlns:xlink="http://www.w3.org/1999/xlink" version="1.1"><rect x="0" y="0" width="900" height="600" fill="#1e1e1e"></rect><path d="M0 502L21.5 498.8C43 495.7 86 489.3 128.8 491C171.7 492.7 214.3 502.3 257.2 497.2C300 492 343 472 385.8 461.8C428.7 451.7 471.3 451.3 514.2 456.8C557 462.3 600 473.7 642.8 474.5C685.7 475.3 728.3 465.7 771.2 461.5C814 457.3 857 458.7 878.5 459.3L900 460L900 601L878.5 601C857 601 814 601 771.2 601C728.3 601 685.7 601 642.8 601C600 601 557 601 514.2 601C471.3 601 428.7 601 385.8 601C343 601 300 601 257.2 601C214.3 601 171.7 601 128.8 601C86 601 43 601 21.5 601L0 601Z" fill="#cc2f27"></path><path d="M0 494L21.5 499.5C43 505 86 516 128.8 521C171.7 526 214.3 525 257.2 521.2C300 517.3 343 510.7 385.8 508.5C428.7 506.3 471.3 508.7 514.2 505.5C557 502.3 600 493.7 642.8 492.2C685.7 490.7 728.3 496.3 771.2 497.3C814 498.3 857 494.7 878.5 492.8L900 491L900 601L878.5 601C857 601 814 601 771.2 601C728.3 601 685.7 601 642.8 601C600 601 557 601 514.2 601C471.3 601 428.7 601 385.8 601C343 601 300 601 257.2 601C214.3 601 171.7 601 128.8 601C86 601 43 601 21.5 601L0 601Z" fill="#c02a22"></path><path d="M0 531L21.5 531.7C43 532.3 86 533.7 128.8 532C171.7 530.3 214.3 525.7 257.2 524C300 522.3 343 523.7 385.8 524C428.7 524.3 471.3 523.7 514.2 528.8C557 534 600 545 642.8 544.7C685.7 544.3 728.3 532.7 771.2 531.3C814 530 857 539 878.5 543.5L900 548L900 601L878.5 601C857 601 814 601 771.2 601C728.3 601 685.7 601 642.8 601C600 601 557 601 514.2 601C471.3 601 428.7 601 385.8 601C343 601 300 601 257.2 601C214.3 601 171.7 601 128.8 601C86 601 43 601 21.5 601L0 601Z" fill="#b4251e"></path><path d="M0 547L21.5 549.7C43 552.3 86 557.7 128.8 560.7C171.7 563.7 214.3 564.3 257.2 564C300 563.7 343 562.3 385.8 561.7C428.7 561 471.3 561 514.2 563C557 565 600 569 642.8 568.7C685.7 568.3 728.3 563.7 771.2 559.8C814 556 857 553 878.5 551.5L900 550L900 601L878.5 601C857 601 814 601 771.2 601C728.3 601 685.7 601 642.8 601C600 601 557 601 514.2 601C471.3 601 428.7 601 385.8 601C343 601 300 601 257.2 601C214.3 601 171.7 601 128.8 601C86 601 43 601 21.5 601L0 601Z" fill="#a8201a"></path></svg>